<?xml version="1.0" encoding="utf-8" standalone="no"?>
<!DOCTYPE svg PUBLIC "-//W3C//DTD SVG 1.1//EN"
  "http://www.w3.org/Graphics/SVG/1.1/DTD/svg11.dtd">
<svg xmlns:xlink="http://www.w3.org/1999/xlink" width="460.8pt" height="345.6pt" viewBox="0 0 460.8 345.6" xmlns="http://www.w3.org/2000/svg" version="1.1">
 <metadata>
  <rdf:RDF xmlns:dc="http://purl.org/dc/elements/1.1/" xmlns:cc="http://creativecommons.org/ns#" xmlns:rdf="http://www.w3.org/1999/02/22-rdf-syntax-ns#">
   <cc:Work>
    <dc:type rdf:resource="http://purl.org/dc/dcmitype/StillImage"/>
    <dc:date>2024-06-12T22:39:42.734154</dc:date>
    <dc:format>image/svg+xml</dc:format>
    <dc:creator>
     <cc:Agent>
      <dc:title>Matplotlib v3.8.2, https://matplotlib.org/</dc:title>
     </cc:Agent>
    </dc:creator>
   </cc:Work>
  </rdf:RDF>
 </metadata>
 <defs>
  <style type="text/css">*{stroke-linejoin: round; stroke-linecap: butt}</style>
 </defs>
 <g id="figure_1">
  <g id="patch_1">
   <path d="M 0 345.6 
L 460.8 345.6 
L 460.8 0 
L 0 0 
z
" style="fill: #ffffff"/>
  </g>
  <g id="axes_1">
   <g id="patch_2">
    <path d="M 284.629914 88.503743 
C 283.235986 80.598384 280.164598 73.082592 275.623012 66.463549 
C 271.081427 59.844505 265.174155 54.274525 258.299829 50.129481 
C 251.425504 45.984437 243.742315 43.359715 235.768741 42.432435 
C 227.795167 41.505155 219.714692 42.296657 212.072602 44.753527 
L 229.27584 98.26416 
z
" style="fill: #262626; opacity: 0.5; stroke: #262626; stroke-linejoin: miter"/>
   </g>
   <g id="patch_3">
    <path d="M 208.958312 40.074361 
C 204.024237 41.660626 199.333186 43.921734 195.01865 46.793339 
C 190.704114 49.664944 186.807412 53.119547 183.439432 57.058841 
L 226.16155 93.584994 
z
" style="fill: #4b4845; opacity: 0.5; stroke: #4b4845; stroke-linejoin: miter"/>
   </g>
   <g id="patch_4">
    <path d="M 186.553722 61.738007 
C 181.163298 68.042812 177.234782 75.463396 175.050877 83.465758 
C 172.866972 91.46812 172.481352 99.855587 173.921766 108.024579 
C 175.36218 116.193572 178.593228 123.943322 183.382397 130.716143 
C 188.171566 137.488963 194.401154 143.118399 201.622865 147.199344 
L 229.27584 98.26416 
z
" style="fill: #4d4d43; opacity: 0.5; stroke: #4d4d43; stroke-linejoin: miter"/>
   </g>
   <g id="patch_5">
    <path d="M 201.622865 147.199344 
C 212.522403 153.358607 225.173445 155.703224 237.55629 153.858885 
C 249.939135 152.014545 261.357785 146.084914 269.989286 137.016638 
L 229.27584 98.26416 
z
" style="fill: #482626; opacity: 0.5; stroke: #482626; stroke-linejoin: miter"/>
   </g>
   <g id="patch_6">
    <path d="M 269.989286 137.016638 
C 276.057273 130.641597 280.543946 122.929565 283.086781 114.503676 
C 285.629617 106.077786 286.158231 97.171259 284.629914 88.503741 
L 229.27584 98.26416 
z
" style="fill: #2e3e0f; opacity: 0.5; stroke: #2e3e0f; stroke-linejoin: miter"/>
   </g>
   <g id="patch_7">
    <path d="M 285.754074 87.379583 
C 284.360146 79.474224 281.288758 71.958432 276.747172 65.339389 
C 272.205587 58.720345 266.298315 53.150365 259.423989 49.005321 
C 252.549664 44.860277 244.866475 42.235555 236.892901 41.308275 
C 228.919327 40.380995 220.838852 41.172497 213.196762 43.629367 
L 230.4 97.14 
z
" style="fill: #808080"/>
   </g>
   <g id="patch_8">
    <path d="M 210.082472 38.950201 
C 205.148397 40.536466 200.457346 42.797574 196.14281 45.669179 
C 191.828274 48.540784 187.931572 51.995387 184.563592 55.934681 
L 227.28571 92.460834 
z
" style="fill: #faf0e6"/>
   </g>
   <g id="patch_9">
    <path d="M 187.677882 60.613847 
C 182.287458 66.918652 178.358942 74.339236 176.175037 82.341598 
C 173.991132 90.34396 173.605512 98.731427 175.045926 106.900419 
C 176.48634 115.069412 179.717388 122.819162 184.506557 129.591983 
C 189.295726 136.364803 195.525314 141.994239 202.747025 146.075184 
L 230.4 97.14 
z
" style="fill: #ffffe0"/>
   </g>
   <g id="patch_10">
    <path d="M 202.747025 146.075184 
C 213.646563 152.234447 226.297605 154.579064 238.68045 152.734725 
C 251.063295 150.890385 262.481945 144.960754 271.113446 135.892478 
L 230.4 97.14 
z
" style="fill: #f08080"/>
   </g>
   <g id="patch_11">
    <path d="M 271.113446 135.892478 
C 277.181433 129.517437 281.668106 121.805405 284.210941 113.379516 
C 286.753777 104.953626 287.282391 96.047099 285.754074 87.379581 
L 230.4 97.14 
z
" style="fill: #9acd32"/>
   </g>
   <g id="matplotlib.axis_1"/>
   <g id="matplotlib.axis_2"/>
   <g id="text_1">
    <!-- A -->
    <g transform="translate(262.326388 46.951228) scale(0.1 -0.1)">
     <defs>
      <path id="DejaVuSans-41" d="M 2188 4044 
L 1331 1722 
L 3047 1722 
L 2188 4044 
z
M 1831 4666 
L 2547 4666 
L 4325 0 
L 3669 0 
L 3244 1197 
L 1141 1197 
L 716 0 
L 50 0 
L 1831 4666 
z
" transform="scale(0.015625)"/>
     </defs>
     <use xlink:href="#DejaVuSans-41"/>
    </g>
   </g>
   <g id="text_2">
    <!-- 27.2% -->
    <g transform="translate(231.9308 71.018568) scale(0.1 -0.1)">
     <defs>
      <path id="DejaVuSans-32" d="M 1228 531 
L 3431 531 
L 3431 0 
L 469 0 
L 469 531 
Q 828 903 1448 1529 
Q 2069 2156 2228 2338 
Q 2531 2678 2651 2914 
Q 2772 3150 2772 3378 
Q 2772 3750 2511 3984 
Q 2250 4219 1831 4219 
Q 1534 4219 1204 4116 
Q 875 4013 500 3803 
L 500 4441 
Q 881 4594 1212 4672 
Q 1544 4750 1819 4750 
Q 2544 4750 2975 4387 
Q 3406 4025 3406 3419 
Q 3406 3131 3298 2873 
Q 3191 2616 2906 2266 
Q 2828 2175 2409 1742 
Q 1991 1309 1228 531 
z
" transform="scale(0.015625)"/>
      <path id="DejaVuSans-37" d="M 525 4666 
L 3525 4666 
L 3525 4397 
L 1831 0 
L 1172 0 
L 2766 4134 
L 525 4134 
L 525 4666 
z
" transform="scale(0.015625)"/>
      <path id="DejaVuSans-2e" d="M 684 794 
L 1344 794 
L 1344 0 
L 684 0 
L 684 794 
z
" transform="scale(0.015625)"/>
      <path id="DejaVuSans-25" d="M 4653 2053 
Q 4381 2053 4226 1822 
Q 4072 1591 4072 1178 
Q 4072 772 4226 539 
Q 4381 306 4653 306 
Q 4919 306 5073 539 
Q 5228 772 5228 1178 
Q 5228 1588 5073 1820 
Q 4919 2053 4653 2053 
z
M 4653 2450 
Q 5147 2450 5437 2106 
Q 5728 1763 5728 1178 
Q 5728 594 5436 251 
Q 5144 -91 4653 -91 
Q 4153 -91 3862 251 
Q 3572 594 3572 1178 
Q 3572 1766 3864 2108 
Q 4156 2450 4653 2450 
z
M 1428 4353 
Q 1159 4353 1004 4120 
Q 850 3888 850 3481 
Q 850 3069 1003 2837 
Q 1156 2606 1428 2606 
Q 1700 2606 1854 2837 
Q 2009 3069 2009 3481 
Q 2009 3884 1853 4118 
Q 1697 4353 1428 4353 
z
M 4250 4750 
L 4750 4750 
L 1831 -91 
L 1331 -91 
L 4250 4750 
z
M 1428 4750 
Q 1922 4750 2215 4408 
Q 2509 4066 2509 3481 
Q 2509 2891 2217 2550 
Q 1925 2209 1428 2209 
Q 931 2209 642 2551 
Q 353 2894 353 3481 
Q 353 4063 643 4406 
Q 934 4750 1428 4750 
z
" transform="scale(0.015625)"/>
     </defs>
     <use xlink:href="#DejaVuSans-32"/>
     <use xlink:href="#DejaVuSans-37" x="63.623047"/>
     <use xlink:href="#DejaVuSans-2e" x="127.246094"/>
     <use xlink:href="#DejaVuSans-32" x="159.033203"/>
     <use xlink:href="#DejaVuSans-25" x="222.65625"/>
    </g>
   </g>
   <g id="text_3">
    <!-- B -->
    <g transform="translate(186.167583 43.749388) scale(0.1 -0.1)">
     <defs>
      <path id="DejaVuSans-42" d="M 1259 2228 
L 1259 519 
L 2272 519 
Q 2781 519 3026 730 
Q 3272 941 3272 1375 
Q 3272 1813 3026 2020 
Q 2781 2228 2272 2228 
L 1259 2228 
z
M 1259 4147 
L 1259 2741 
L 2194 2741 
Q 2656 2741 2882 2914 
Q 3109 3088 3109 3444 
Q 3109 3797 2882 3972 
Q 2656 4147 2194 4147 
L 1259 4147 
z
M 628 4666 
L 2241 4666 
Q 2963 4666 3353 4366 
Q 3744 4066 3744 3513 
Q 3744 3084 3544 2831 
Q 3344 2578 2956 2516 
Q 3422 2416 3680 2098 
Q 3938 1781 3938 1306 
Q 3938 681 3513 340 
Q 3088 0 2303 0 
L 628 0 
L 628 4666 
z
" transform="scale(0.015625)"/>
     </defs>
     <use xlink:href="#DejaVuSans-42"/>
    </g>
   </g>
   <g id="text_4">
    <!-- 8.8% -->
    <g transform="translate(195.897626 67.145216) scale(0.1 -0.1)">
     <defs>
      <path id="DejaVuSans-38" d="M 2034 2216 
Q 1584 2216 1326 1975 
Q 1069 1734 1069 1313 
Q 1069 891 1326 650 
Q 1584 409 2034 409 
Q 2484 409 2743 651 
Q 3003 894 3003 1313 
Q 3003 1734 2745 1975 
Q 2488 2216 2034 2216 
z
M 1403 2484 
Q 997 2584 770 2862 
Q 544 3141 544 3541 
Q 544 4100 942 4425 
Q 1341 4750 2034 4750 
Q 2731 4750 3128 4425 
Q 3525 4100 3525 3541 
Q 3525 3141 3298 2862 
Q 3072 2584 2669 2484 
Q 3125 2378 3379 2068 
Q 3634 1759 3634 1313 
Q 3634 634 3220 271 
Q 2806 -91 2034 -91 
Q 1263 -91 848 271 
Q 434 634 434 1313 
Q 434 1759 690 2068 
Q 947 2378 1403 2484 
z
M 1172 3481 
Q 1172 3119 1398 2916 
Q 1625 2713 2034 2713 
Q 2441 2713 2670 2916 
Q 2900 3119 2900 3481 
Q 2900 3844 2670 4047 
Q 2441 4250 2034 4250 
Q 1625 4250 1398 4047 
Q 1172 3844 1172 3481 
z
" transform="scale(0.015625)"/>
     </defs>
     <use xlink:href="#DejaVuSans-38"/>
     <use xlink:href="#DejaVuSans-2e" x="63.623047"/>
     <use xlink:href="#DejaVuSans-38" x="95.410156"/>
     <use xlink:href="#DejaVuSans-25" x="159.033203"/>
    </g>
   </g>
   <g id="text_5">
    <!-- C -->
    <g transform="translate(162.527706 110.635836) scale(0.1 -0.1)">
     <defs>
      <path id="DejaVuSans-43" d="M 4122 4306 
L 4122 3641 
Q 3803 3938 3442 4084 
Q 3081 4231 2675 4231 
Q 1875 4231 1450 3742 
Q 1025 3253 1025 2328 
Q 1025 1406 1450 917 
Q 1875 428 2675 428 
Q 3081 428 3442 575 
Q 3803 722 4122 1019 
L 4122 359 
Q 3791 134 3420 21 
Q 3050 -91 2638 -91 
Q 1578 -91 968 557 
Q 359 1206 359 2328 
Q 359 3453 968 4101 
Q 1578 4750 2638 4750 
Q 3056 4750 3426 4639 
Q 3797 4528 4122 4306 
z
" transform="scale(0.015625)"/>
     </defs>
     <use xlink:href="#DejaVuSans-43"/>
    </g>
   </g>
   <g id="text_6">
    <!-- 28.1% -->
    <g transform="translate(181.303962 105.755627) scale(0.1 -0.1)">
     <defs>
      <path id="DejaVuSans-31" d="M 794 531 
L 1825 531 
L 1825 4091 
L 703 3866 
L 703 4441 
L 1819 4666 
L 2450 4666 
L 2450 531 
L 3481 531 
L 3481 0 
L 794 0 
L 794 531 
z
" transform="scale(0.015625)"/>
     </defs>
     <use xlink:href="#DejaVuSans-32"/>
     <use xlink:href="#DejaVuSans-38" x="63.623047"/>
     <use xlink:href="#DejaVuSans-2e" x="127.246094"/>
     <use xlink:href="#DejaVuSans-31" x="159.033203"/>
     <use xlink:href="#DejaVuSans-25" x="222.65625"/>
    </g>
   </g>
   <g id="text_7">
    <!-- D -->
    <g transform="translate(239.508495 161.053572) scale(0.1 -0.1)">
     <defs>
      <path id="DejaVuSans-44" d="M 1259 4147 
L 1259 519 
L 2022 519 
Q 2988 519 3436 956 
Q 3884 1394 3884 2338 
Q 3884 3275 3436 3711 
Q 2988 4147 2022 4147 
L 1259 4147 
z
M 628 4666 
L 1925 4666 
Q 3281 4666 3915 4102 
Q 4550 3538 4550 2338 
Q 4550 1131 3912 565 
Q 3275 0 1925 0 
L 628 0 
L 628 4666 
z
" transform="scale(0.015625)"/>
     </defs>
     <use xlink:href="#DejaVuSans-44"/>
    </g>
   </g>
   <g id="text_8">
    <!-- 21.1% -->
    <g transform="translate(219.484676 133.25621) scale(0.1 -0.1)">
     <use xlink:href="#DejaVuSans-32"/>
     <use xlink:href="#DejaVuSans-31" x="63.623047"/>
     <use xlink:href="#DejaVuSans-2e" x="127.246094"/>
     <use xlink:href="#DejaVuSans-31" x="159.033203"/>
     <use xlink:href="#DejaVuSans-25" x="222.65625"/>
    </g>
   </g>
   <g id="text_9">
    <!-- E -->
    <g transform="translate(289.592035 117.762842) scale(0.1 -0.1)">
     <defs>
      <path id="DejaVuSans-45" d="M 628 4666 
L 3578 4666 
L 3578 4134 
L 1259 4134 
L 1259 2753 
L 3481 2753 
L 3481 2222 
L 1259 2222 
L 1259 531 
L 3634 531 
L 3634 0 
L 628 0 
L 628 4666 
z
" transform="scale(0.015625)"/>
     </defs>
     <use xlink:href="#DejaVuSans-45"/>
    </g>
   </g>
   <g id="text_10">
    <!-- 14.9% -->
    <g transform="translate(246.802971 109.643084) scale(0.1 -0.1)">
     <defs>
      <path id="DejaVuSans-34" d="M 2419 4116 
L 825 1625 
L 2419 1625 
L 2419 4116 
z
M 2253 4666 
L 3047 4666 
L 3047 1625 
L 3713 1625 
L 3713 1100 
L 3047 1100 
L 3047 0 
L 2419 0 
L 2419 1100 
L 313 1100 
L 313 1709 
L 2253 4666 
z
" transform="scale(0.015625)"/>
      <path id="DejaVuSans-39" d="M 703 97 
L 703 672 
Q 941 559 1184 500 
Q 1428 441 1663 441 
Q 2288 441 2617 861 
Q 2947 1281 2994 2138 
Q 2813 1869 2534 1725 
Q 2256 1581 1919 1581 
Q 1219 1581 811 2004 
Q 403 2428 403 3163 
Q 403 3881 828 4315 
Q 1253 4750 1959 4750 
Q 2769 4750 3195 4129 
Q 3622 3509 3622 2328 
Q 3622 1225 3098 567 
Q 2575 -91 1691 -91 
Q 1453 -91 1209 -44 
Q 966 3 703 97 
z
M 1959 2075 
Q 2384 2075 2632 2365 
Q 2881 2656 2881 3163 
Q 2881 3666 2632 3958 
Q 2384 4250 1959 4250 
Q 1534 4250 1286 3958 
Q 1038 3666 1038 3163 
Q 1038 2656 1286 2365 
Q 1534 2075 1959 2075 
z
" transform="scale(0.015625)"/>
     </defs>
     <use xlink:href="#DejaVuSans-31"/>
     <use xlink:href="#DejaVuSans-34" x="63.623047"/>
     <use xlink:href="#DejaVuSans-2e" x="127.246094"/>
     <use xlink:href="#DejaVuSans-39" x="159.033203"/>
     <use xlink:href="#DejaVuSans-25" x="222.65625"/>
    </g>
   </g>
   <g id="text_11">
    <!-- Tytuł 1 -->
    <g transform="translate(210.537187 20.88) scale(0.12 -0.12)">
     <defs>
      <path id="DejaVuSans-54" d="M -19 4666 
L 3928 4666 
L 3928 4134 
L 2272 4134 
L 2272 0 
L 1638 0 
L 1638 4134 
L -19 4134 
L -19 4666 
z
" transform="scale(0.015625)"/>
      <path id="DejaVuSans-79" d="M 2059 -325 
Q 1816 -950 1584 -1140 
Q 1353 -1331 966 -1331 
L 506 -1331 
L 506 -850 
L 844 -850 
Q 1081 -850 1212 -737 
Q 1344 -625 1503 -206 
L 1606 56 
L 191 3500 
L 800 3500 
L 1894 763 
L 2988 3500 
L 3597 3500 
L 2059 -325 
z
" transform="scale(0.015625)"/>
      <path id="DejaVuSans-74" d="M 1172 4494 
L 1172 3500 
L 2356 3500 
L 2356 3053 
L 1172 3053 
L 1172 1153 
Q 1172 725 1289 603 
Q 1406 481 1766 481 
L 2356 481 
L 2356 0 
L 1766 0 
Q 1100 0 847 248 
Q 594 497 594 1153 
L 594 3053 
L 172 3053 
L 172 3500 
L 594 3500 
L 594 4494 
L 1172 4494 
z
" transform="scale(0.015625)"/>
      <path id="DejaVuSans-75" d="M 544 1381 
L 544 3500 
L 1119 3500 
L 1119 1403 
Q 1119 906 1312 657 
Q 1506 409 1894 409 
Q 2359 409 2629 706 
Q 2900 1003 2900 1516 
L 2900 3500 
L 3475 3500 
L 3475 0 
L 2900 0 
L 2900 538 
Q 2691 219 2414 64 
Q 2138 -91 1772 -91 
Q 1169 -91 856 284 
Q 544 659 544 1381 
z
M 1991 3584 
L 1991 3584 
z
" transform="scale(0.015625)"/>
      <path id="DejaVuSans-142" d="M 622 4863 
L 1197 4863 
L 1197 2981 
L 1588 3263 
L 1825 2931 
L 1197 2491 
L 1197 0 
L 622 0 
L 622 2081 
L 238 1806 
L 6 2138 
L 622 2578 
L 622 4863 
z
" transform="scale(0.015625)"/>
      <path id="DejaVuSans-20" transform="scale(0.015625)"/>
     </defs>
     <use xlink:href="#DejaVuSans-54"/>
     <use xlink:href="#DejaVuSans-79" x="45.458984"/>
     <use xlink:href="#DejaVuSans-74" x="104.638672"/>
     <use xlink:href="#DejaVuSans-75" x="143.847656"/>
     <use xlink:href="#DejaVuSans-142" x="207.226562"/>
     <use xlink:href="#DejaVuSans-20" x="235.644531"/>
     <use xlink:href="#DejaVuSans-31" x="267.431641"/>
    </g>
   </g>
  </g>
  <g id="axes_2">
   <g id="patch_12">
    <path d="M 284.629914 255.903743 
C 283.310734 248.422299 280.488398 241.285371 276.333838 234.925192 
C 272.179277 228.565014 266.77809 223.112629 260.457389 218.898251 
C 254.136688 214.683872 247.026704 211.794332 239.558038 210.40463 
C 232.089372 209.014927 224.415907 209.153696 217.002371 210.812531 
L 229.27584 265.66416 
z
" style="fill: #004d4d; opacity: 0.5; stroke: #004d4d; stroke-linejoin: miter"/>
   </g>
   <g id="patch_13">
    <path d="M 212.645893 207.260842 
C 200.344608 210.013348 189.319766 216.825542 181.354582 226.595586 
C 173.389397 236.365629 168.937784 248.536753 168.719769 261.140339 
L 224.919362 262.112471 
z
" style="fill: #4d2a00; opacity: 0.5; stroke: #4d2a00; stroke-linejoin: miter"/>
   </g>
   <g id="patch_14">
    <path d="M 173.076247 264.692028 
C 172.939194 272.615186 174.479217 280.478496 177.594991 287.764591 
C 180.710764 295.050686 185.332423 301.596187 191.155884 306.970434 
L 229.27584 265.66416 
z
" style="fill: #48452a; opacity: 0.5; stroke: #48452a; stroke-linejoin: miter"/>
   </g>
   <g id="patch_15">
    <path d="M 191.155884 306.970434 
C 196.716813 312.102399 203.257252 316.058935 210.384135 318.602263 
C 217.511019 321.145591 225.078658 322.223721 232.632253 321.771858 
L 229.27584 265.66416 
z
" style="fill: #002600; opacity: 0.5; stroke: #002600; stroke-linejoin: miter"/>
   </g>
   <g id="patch_16">
    <path d="M 232.632253 321.771858 
C 240.542457 321.298662 248.263904 319.157972 255.288565 315.490633 
C 262.313225 311.823294 268.483581 306.711541 273.393655 300.491702 
C 278.303729 294.271862 281.843419 287.083406 283.779833 279.399297 
C 285.716247 271.715188 286.005963 263.707731 284.62992 255.903774 
L 229.27584 265.66416 
z
" style="fill: #4d0000; opacity: 0.5; stroke: #4d0000; stroke-linejoin: miter"/>
   </g>
   <g id="patch_17">
    <path d="M 285.754074 254.779583 
C 284.434894 247.298139 281.612558 240.161211 277.457998 233.801032 
C 273.303437 227.440854 267.90225 221.988469 261.581549 217.774091 
C 255.260848 213.559712 248.150864 210.670172 240.682198 209.28047 
C 233.213532 207.890767 225.540067 208.029536 218.126531 209.688371 
L 230.4 264.54 
z
" style="fill: #00ffff"/>
   </g>
   <g id="patch_18">
    <path d="M 213.770053 206.136682 
C 201.468768 208.889188 190.443926 215.701382 182.478742 225.471426 
C 174.513557 235.241469 170.061944 247.412593 169.843929 260.016179 
L 226.043522 260.988311 
z
" style="fill: #ff8c00"/>
   </g>
   <g id="patch_19">
    <path d="M 174.200407 263.567868 
C 174.063354 271.491026 175.603377 279.354336 178.719151 286.640431 
C 181.834924 293.926526 186.456583 300.472027 192.280044 305.846274 
L 230.4 264.54 
z
" style="fill: #f0e68c"/>
   </g>
   <g id="patch_20">
    <path d="M 192.280044 305.846274 
C 197.840973 310.978239 204.381412 314.934775 211.508295 317.478103 
C 218.635179 320.021431 226.202818 321.099561 233.756413 320.647698 
L 230.4 264.54 
z
" style="fill: #008000"/>
   </g>
   <g id="patch_21">
    <path d="M 233.756413 320.647698 
C 241.666617 320.174502 249.388064 318.033812 256.412725 314.366473 
C 263.437385 310.699134 269.607741 305.587381 274.517815 299.367542 
C 279.427889 293.147702 282.967579 285.959246 284.903993 278.275137 
C 286.840407 270.591028 287.130123 262.583571 285.75408 254.779614 
L 230.4 264.54 
z
" style="fill: #ff0000"/>
   </g>
   <g id="matplotlib.axis_3"/>
   <g id="matplotlib.axis_4"/>
   <g id="text_12">
    <!-- A -->
    <g transform="translate(264.699704 215.856875) scale(0.1 -0.1)">
     <use xlink:href="#DejaVuSans-41"/>
    </g>
   </g>
   <g id="text_13">
    <!-- 25.7% -->
    <g transform="translate(233.225336 239.239829) scale(0.1 -0.1)">
     <defs>
      <path id="DejaVuSans-35" d="M 691 4666 
L 3169 4666 
L 3169 4134 
L 1269 4134 
L 1269 2991 
Q 1406 3038 1543 3061 
Q 1681 3084 1819 3084 
Q 2600 3084 3056 2656 
Q 3513 2228 3513 1497 
Q 3513 744 3044 326 
Q 2575 -91 1722 -91 
Q 1428 -91 1123 -41 
Q 819 9 494 109 
L 494 744 
Q 775 591 1075 516 
Q 1375 441 1709 441 
Q 2250 441 2565 725 
Q 2881 1009 2881 1497 
Q 2881 1984 2565 2268 
Q 2250 2553 1709 2553 
Q 1456 2553 1204 2497 
Q 953 2441 691 2322 
L 691 4666 
z
" transform="scale(0.015625)"/>
     </defs>
     <use xlink:href="#DejaVuSans-32"/>
     <use xlink:href="#DejaVuSans-35" x="63.623047"/>
     <use xlink:href="#DejaVuSans-2e" x="127.246094"/>
     <use xlink:href="#DejaVuSans-37" x="159.033203"/>
     <use xlink:href="#DejaVuSans-25" x="222.65625"/>
    </g>
   </g>
   <g id="text_14">
    <!-- B -->
    <g transform="translate(171.261326 224.679112) scale(0.1 -0.1)">
     <use xlink:href="#DejaVuSans-42"/>
    </g>
   </g>
   <g id="text_15">
    <!-- 21.2% -->
    <g transform="translate(184.02106 242.437555) scale(0.1 -0.1)">
     <use xlink:href="#DejaVuSans-32"/>
     <use xlink:href="#DejaVuSans-31" x="63.623047"/>
     <use xlink:href="#DejaVuSans-2e" x="127.246094"/>
     <use xlink:href="#DejaVuSans-32" x="159.033203"/>
     <use xlink:href="#DejaVuSans-25" x="222.65625"/>
    </g>
   </g>
   <g id="text_16">
    <!-- C -->
    <g transform="translate(166.568253 291.609849) scale(0.1 -0.1)">
     <use xlink:href="#DejaVuSans-43"/>
    </g>
   </g>
   <g id="text_17">
    <!-- 13.4% -->
    <g transform="translate(183.507897 280.559634) scale(0.1 -0.1)">
     <defs>
      <path id="DejaVuSans-33" d="M 2597 2516 
Q 3050 2419 3304 2112 
Q 3559 1806 3559 1356 
Q 3559 666 3084 287 
Q 2609 -91 1734 -91 
Q 1441 -91 1130 -33 
Q 819 25 488 141 
L 488 750 
Q 750 597 1062 519 
Q 1375 441 1716 441 
Q 2309 441 2620 675 
Q 2931 909 2931 1356 
Q 2931 1769 2642 2001 
Q 2353 2234 1838 2234 
L 1294 2234 
L 1294 2753 
L 1863 2753 
Q 2328 2753 2575 2939 
Q 2822 3125 2822 3475 
Q 2822 3834 2567 4026 
Q 2313 4219 1838 4219 
Q 1578 4219 1281 4162 
Q 984 4106 628 3988 
L 628 4550 
Q 988 4650 1302 4700 
Q 1616 4750 1894 4750 
Q 2613 4750 3031 4423 
Q 3450 4097 3450 3541 
Q 3450 3153 3228 2886 
Q 3006 2619 2597 2516 
z
" transform="scale(0.015625)"/>
     </defs>
     <use xlink:href="#DejaVuSans-31"/>
     <use xlink:href="#DejaVuSans-33" x="63.623047"/>
     <use xlink:href="#DejaVuSans-2e" x="127.246094"/>
     <use xlink:href="#DejaVuSans-34" x="159.033203"/>
     <use xlink:href="#DejaVuSans-25" x="222.65625"/>
    </g>
   </g>
   <g id="text_18">
    <!-- D -->
    <g transform="translate(201.919125 325.531288) scale(0.1 -0.1)">
     <use xlink:href="#DejaVuSans-44"/>
    </g>
   </g>
   <g id="text_19">
    <!-- 12.8% -->
    <g transform="translate(203.181383 299.062237) scale(0.1 -0.1)">
     <use xlink:href="#DejaVuSans-31"/>
     <use xlink:href="#DejaVuSans-32" x="63.623047"/>
     <use xlink:href="#DejaVuSans-2e" x="127.246094"/>
     <use xlink:href="#DejaVuSans-38" x="159.033203"/>
     <use xlink:href="#DejaVuSans-25" x="222.65625"/>
    </g>
   </g>
   <g id="text_20">
    <!-- E -->
    <g transform="translate(278.929597 305.609671) scale(0.1 -0.1)">
     <use xlink:href="#DejaVuSans-45"/>
    </g>
   </g>
   <g id="text_21">
    <!-- 26.8% -->
    <g transform="translate(240.987095 288.1959) scale(0.1 -0.1)">
     <defs>
      <path id="DejaVuSans-36" d="M 2113 2584 
Q 1688 2584 1439 2293 
Q 1191 2003 1191 1497 
Q 1191 994 1439 701 
Q 1688 409 2113 409 
Q 2538 409 2786 701 
Q 3034 994 3034 1497 
Q 3034 2003 2786 2293 
Q 2538 2584 2113 2584 
z
M 3366 4563 
L 3366 3988 
Q 3128 4100 2886 4159 
Q 2644 4219 2406 4219 
Q 1781 4219 1451 3797 
Q 1122 3375 1075 2522 
Q 1259 2794 1537 2939 
Q 1816 3084 2150 3084 
Q 2853 3084 3261 2657 
Q 3669 2231 3669 1497 
Q 3669 778 3244 343 
Q 2819 -91 2113 -91 
Q 1303 -91 875 529 
Q 447 1150 447 2328 
Q 447 3434 972 4092 
Q 1497 4750 2381 4750 
Q 2619 4750 2861 4703 
Q 3103 4656 3366 4563 
z
" transform="scale(0.015625)"/>
     </defs>
     <use xlink:href="#DejaVuSans-32"/>
     <use xlink:href="#DejaVuSans-36" x="63.623047"/>
     <use xlink:href="#DejaVuSans-2e" x="127.246094"/>
     <use xlink:href="#DejaVuSans-38" x="159.033203"/>
     <use xlink:href="#DejaVuSans-25" x="222.65625"/>
    </g>
   </g>
   <g id="text_22">
    <!-- Tytuł 2 -->
    <g transform="translate(210.537188 188.28) scale(0.12 -0.12)">
     <use xlink:href="#DejaVuSans-54"/>
     <use xlink:href="#DejaVuSans-79" x="45.458984"/>
     <use xlink:href="#DejaVuSans-74" x="104.638672"/>
     <use xlink:href="#DejaVuSans-75" x="143.847656"/>
     <use xlink:href="#DejaVuSans-142" x="207.226562"/>
     <use xlink:href="#DejaVuSans-20" x="235.644531"/>
     <use xlink:href="#DejaVuSans-32" x="267.431641"/>
    </g>
   </g>
  </g>
 </g>
</svg>
